<svg width="12" height="12" viewBox="0 0 12 12" fill="none" xmlns="http://www.w3.org/2000/svg">
<path d="M10.8933 8.66004L10.2267 7.55337C10.0867 7.30671 9.96001 6.84004 9.96001 6.56671V4.88004C9.96001 3.31337 9.04001 1.96004 7.71335 1.32671C7.36668 0.713374 6.72668 0.333374 5.99335 0.333374C5.26668 0.333374 4.61335 0.726707 4.26668 1.34671C2.96668 1.99337 2.06668 3.33337 2.06668 4.88004V6.56671C2.06668 6.84004 1.94001 7.30671 1.80001 7.54671L1.12668 8.66004C0.860013 9.10671 0.800013 9.60004 0.966679 10.0534C1.12668 10.5 1.50668 10.8467 2.00001 11.0134C3.29335 11.4534 4.65335 11.6667 6.01335 11.6667C7.37335 11.6667 8.73335 11.4534 10.0267 11.02C10.4933 10.8667 10.8533 10.5134 11.0267 10.0534C11.2 9.59337 11.1533 9.08671 10.8933 8.66004Z" fill="#292D32"/>
</svg>
