<svg width="11" height="17" viewBox="0 0 11 17" fill="none" xmlns="http://www.w3.org/2000/svg">
<path d="M5.31205 16.1145C6.72101 16.1145 8.07227 15.5548 9.06855 14.5585C10.0648 13.5623 10.6245 12.211 10.6245 10.802C10.6245 10.1886 10.4616 9.6 10.2704 9.05246C9.08959 10.2191 8.19284 10.802 7.57871 10.802C10.4085 5.84371 8.85371 3.71871 4.60371 0.885376C4.95788 4.42704 2.62321 6.03779 1.67263 6.93242C0.897237 7.66177 0.35884 8.60725 0.127248 9.64627C-0.104344 10.6853 -0.0184505 11.7699 0.373793 12.7595C0.766036 13.7492 1.44654 14.5981 2.32706 15.1963C3.20759 15.7946 4.24753 16.1145 5.31205 16.1145ZM5.81496 3.531C8.11067 5.47892 8.12201 6.99263 6.34834 10.1001C5.8093 11.0443 6.49142 12.2187 7.57871 12.2187C8.06605 12.2187 8.55905 12.077 9.07967 11.7973C8.92535 12.3802 8.63781 12.9194 8.2397 13.3723C7.84158 13.8252 7.34376 14.1795 6.78543 14.4074C6.2271 14.6352 5.6235 14.7303 5.02217 14.6852C4.42083 14.6401 3.83817 14.456 3.32008 14.1474C2.80198 13.8389 2.36258 13.4142 2.03649 12.907C1.7104 12.3997 1.50651 11.8237 1.44088 11.2243C1.37525 10.6248 1.44967 10.0183 1.65828 9.45255C1.86689 8.88675 2.20399 8.37711 2.64305 7.96375C2.7323 7.88017 3.18492 7.47854 3.20476 7.46083C3.50509 7.19167 3.7523 6.95296 3.99667 6.69158C4.86792 5.758 5.49409 4.72242 5.81426 3.531" fill="black"/>
</svg>
